%TF.GenerationSoftware,KiCad,Pcbnew,9.0.4*%
%TF.CreationDate,2026-07-07T13:22:11-05:00*%
%TF.ProjectId,Philo- main,5068696c-6f2d-4206-9d61-696e2e6b6963,rev?*%
%TF.SameCoordinates,Original*%
%TF.FileFunction,Soldermask,Bot*%
%TF.FilePolarity,Negative*%
%FSLAX46Y46*%
G04 Gerber Fmt 4.6, Leading zero omitted, Abs format (unit mm)*
G04 Created by KiCad (PCBNEW 9.0.4) date 2026-07-07 13:22:11*
%MOMM*%
%LPD*%
G01*
G04 APERTURE LIST*
G04 Aperture macros list*
%AMRoundRect*
0 Rectangle with rounded corners*
0 $1 Rounding radius*
0 $2 $3 $4 $5 $6 $7 $8 $9 X,Y pos of 4 corners*
0 Add a 4 corners polygon primitive as box body*
4,1,4,$2,$3,$4,$5,$6,$7,$8,$9,$2,$3,0*
0 Add four circle primitives for the rounded corners*
1,1,$1+$1,$2,$3*
1,1,$1+$1,$4,$5*
1,1,$1+$1,$6,$7*
1,1,$1+$1,$8,$9*
0 Add four rect primitives between the rounded corners*
20,1,$1+$1,$2,$3,$4,$5,0*
20,1,$1+$1,$4,$5,$6,$7,0*
20,1,$1+$1,$6,$7,$8,$9,0*
20,1,$1+$1,$8,$9,$2,$3,0*%
G04 Aperture macros list end*
%ADD10C,3.200000*%
%ADD11R,1.700000X1.700000*%
%ADD12C,1.700000*%
%ADD13C,2.000000*%
%ADD14RoundRect,0.250000X0.750000X-0.750000X0.750000X0.750000X-0.750000X0.750000X-0.750000X-0.750000X0*%
%ADD15RoundRect,0.250000X-0.550000X-0.550000X0.550000X-0.550000X0.550000X0.550000X-0.550000X0.550000X0*%
%ADD16C,1.600000*%
%ADD17RoundRect,0.250001X-0.949999X-0.949999X0.949999X-0.949999X0.949999X0.949999X-0.949999X0.949999X0*%
%ADD18C,2.400000*%
%ADD19C,1.400000*%
%ADD20RoundRect,0.770000X0.980000X-0.980000X0.980000X0.980000X-0.980000X0.980000X-0.980000X-0.980000X0*%
%ADD21C,3.500000*%
%ADD22RoundRect,0.250000X-0.750000X-0.750000X0.750000X-0.750000X0.750000X0.750000X-0.750000X0.750000X0*%
G04 APERTURE END LIST*
D10*
%TO.C,REF\u002A\u002A*%
X145880000Y-126520000D03*
%TD*%
%TO.C,REF\u002A\u002A*%
X249700000Y-125910000D03*
%TD*%
%TO.C,REF\u002A\u002A*%
X250120000Y-22400000D03*
%TD*%
%TO.C,REF\u002A\u002A*%
X147040000Y-22800000D03*
%TD*%
D11*
%TO.C,J10*%
X152630000Y-87545000D03*
D12*
X152630000Y-85005000D03*
%TD*%
D11*
%TO.C,J3*%
X172880000Y-27510000D03*
D12*
X172880000Y-30050000D03*
X172880000Y-32590000D03*
X172880000Y-35130000D03*
%TD*%
D11*
%TO.C,J9*%
X153060000Y-74730000D03*
D12*
X153060000Y-77270000D03*
%TD*%
D11*
%TO.C,J11*%
X153580000Y-51850000D03*
D12*
X153580000Y-54390000D03*
%TD*%
D11*
%TO.C,J5*%
X241230000Y-87230000D03*
D12*
X238690000Y-87230000D03*
%TD*%
D13*
%TO.C,SW1*%
X224990000Y-28250000D03*
X231490000Y-28250000D03*
X224990000Y-32750000D03*
X231490000Y-32750000D03*
%TD*%
D11*
%TO.C,U1*%
X221530000Y-73990000D03*
D12*
X224070000Y-73990000D03*
X226610000Y-73990000D03*
X229150000Y-73990000D03*
X231690000Y-73990000D03*
X234230000Y-73990000D03*
X236770000Y-73990000D03*
X239310000Y-73990000D03*
%TD*%
D13*
%TO.C,SW2*%
X211860000Y-27820000D03*
X218360000Y-27820000D03*
X211860000Y-32320000D03*
X218360000Y-32320000D03*
%TD*%
D11*
%TO.C,J6*%
X237820000Y-69690000D03*
D12*
X235280000Y-69690000D03*
X232740000Y-69690000D03*
%TD*%
D14*
%TO.C,C27*%
X174710000Y-63670000D03*
D13*
X174710000Y-58670000D03*
%TD*%
D11*
%TO.C,J1*%
X196220000Y-27550000D03*
D12*
X196220000Y-30090000D03*
X196220000Y-32630000D03*
X196220000Y-35170000D03*
%TD*%
D11*
%TO.C,J4*%
X171610000Y-41860000D03*
D12*
X169070000Y-41860000D03*
X166530000Y-41860000D03*
X163990000Y-41860000D03*
%TD*%
D15*
%TO.C,C24*%
X186972621Y-116350000D03*
D16*
X189472621Y-116350000D03*
%TD*%
D11*
%TO.C,J8*%
X211620000Y-110660000D03*
D12*
X211620000Y-113200000D03*
X211620000Y-115740000D03*
X211620000Y-118280000D03*
X211620000Y-120820000D03*
%TD*%
D17*
%TO.C,C22*%
X217480000Y-115590000D03*
D18*
X222480000Y-115590000D03*
%TD*%
D11*
%TO.C,J14*%
X173470000Y-75380000D03*
D12*
X176010000Y-75380000D03*
X178550000Y-75380000D03*
%TD*%
D14*
%TO.C,C29*%
X175810000Y-86707677D03*
D13*
X175810000Y-81707677D03*
%TD*%
D11*
%TO.C,J2*%
X186360000Y-27520000D03*
D12*
X186360000Y-30060000D03*
X186360000Y-32600000D03*
X186360000Y-35140000D03*
%TD*%
D19*
%TO.C,J7*%
X158770000Y-121320000D03*
X158770000Y-110320000D03*
D20*
X163770000Y-118320000D03*
D21*
X163770000Y-113320000D03*
%TD*%
D11*
%TO.C,J13*%
X174190000Y-53670000D03*
D12*
X176730000Y-53670000D03*
X179270000Y-53670000D03*
%TD*%
D11*
%TO.C,J12*%
X153080000Y-65270000D03*
D12*
X153080000Y-62730000D03*
%TD*%
D22*
%TO.C,F2*%
X174837323Y-114220000D03*
D13*
X179837323Y-114220000D03*
%TD*%
M02*
