M48
; DRILL file {KiCad 9.0.4} date 2026-06-21T22:44:20-0500
; FORMAT={-:-/ absolute / metric / decimal}
; #@! TF.CreationDate,2026-06-21T22:44:20-05:00
; #@! TF.GenerationSoftware,Kicad,Pcbnew,9.0.4
; #@! TF.FileFunction,Plated,1,2,PTH
FMAT,2
METRIC
; #@! TA.AperFunction,Plated,PTH,ComponentDrill
T1C0.200
; #@! TA.AperFunction,Plated,PTH,ViaDrill
T2C0.300
; #@! TA.AperFunction,Plated,PTH,ComponentDrill
T3C0.800
; #@! TA.AperFunction,Plated,PTH,ComponentDrill
T4C1.000
; #@! TA.AperFunction,Plated,PTH,ComponentDrill
T5C1.100
; #@! TA.AperFunction,Plated,PTH,ComponentDrill
T6C1.200
; #@! TA.AperFunction,Plated,PTH,ComponentDrill
T7C1.900
%
G90
G05
T1
X231.432Y-52.267
X231.432Y-53.792
X232.195Y-51.505
X232.195Y-53.03
X232.195Y-54.555
X232.957Y-52.267
X232.957Y-53.792
X233.72Y-51.505
X233.72Y-53.03
X233.72Y-54.555
X234.482Y-52.267
X234.482Y-53.792
T2
X155.96Y-52.82
X156.585Y-51.85
X157.608Y-65.052
X158.87Y-65.43
X161.06Y-48.79
X161.88Y-52.27
X162.27Y-52.885
X165.89Y-81.78
X167.338Y-66.082
X167.893Y-79.755
X168.15Y-61.517
X168.52Y-53.87
X168.725Y-60.99
X168.78Y-59.996
X168.82Y-66.68
X169.02Y-83.95
X169.214Y-53.775
X169.897Y-53.624
X170.46Y-44.24
X171.44Y-71.655
X172.29Y-71.08
X173.14Y-48.57
X173.91Y-100.18
X175.04Y-72.23
X176.12Y-48.29
X177.448Y-69.118
X181.31Y-49.85
X181.446Y-48.09
X182.4Y-104.94
X183.27Y-36.71
X183.65Y-48.09
X183.693Y-40.589
X183.82Y-49.77
X184.19Y-63.29
X184.25Y-67.161
X184.31Y-59.46
X184.42Y-61.19
X184.776Y-59.983
X185.049Y-67.203
X186.08Y-42.977
X186.26Y-67.25
X187.07Y-42.06
X189.373Y-71.717
X189.55Y-62.05
X189.95Y-60.56
X190.16Y-38.98
X190.21Y-48.07
X190.53Y-27.54
X190.67Y-37.18
X190.76Y-72.18
X190.81Y-48.91
X191.18Y-57.51
X191.68Y-55.6
X192.96Y-45.81
X194.19Y-67.67
X194.5Y-55.45
X195.16Y-69.82
X195.65Y-67.42
X198.12Y-46.404
X198.28Y-37.17
X199.33Y-46.855
X200.09Y-47.43
X200.55Y-61.4
X202.7Y-48.35
X202.966Y-46.855
X203.785Y-46.855
X203.79Y-50.87
X204.36Y-46.0
X204.36Y-50.11
X205.38Y-46.0
X205.75Y-58.2
X206.87Y-58.05
X207.321Y-46.736
X207.51Y-47.41
X207.68Y-43.05
X208.19Y-61.34
X208.22Y-50.11
X208.244Y-47.935
X208.255Y-41.15
X208.31Y-36.68
X208.88Y-48.42
X208.88Y-51.93
X208.99Y-34.07
X209.01Y-39.3
X211.66Y-37.17
X211.74Y-50.31
X211.75Y-46.85
X211.76Y-39.03
X215.88Y-48.14
X219.51Y-64.48
X219.53Y-76.89
X219.587Y-65.513
X219.63Y-41.76
X219.65Y-48.54
X219.67Y-68.46
X220.04Y-66.86
X220.49Y-48.63
X220.524Y-41.308
X220.63Y-68.085
X220.63Y-76.22
X221.08Y-47.37
X221.16Y-49.95
X221.2Y-53.38
X221.85Y-40.686
X222.6Y-76.21
X223.28Y-67.46
X223.32Y-68.38
X223.91Y-76.835
X226.105Y-42.893
X226.13Y-88.62
X227.31Y-42.66
X227.6Y-43.32
X228.295Y-63.84
X228.87Y-40.64
X229.34Y-65.955
X230.13Y-40.46
X230.19Y-64.26
X230.52Y-84.23
X231.33Y-65.92
X231.34Y-64.35
X231.44Y-39.427
X232.7Y-38.976
X233.93Y-38.59
X234.102Y-65.088
X236.3Y-38.99
X237.46Y-40.32
X237.67Y-66.88
X237.7Y-42.8
T3
X186.973Y-116.35
X189.473Y-116.35
T4
X152.63Y-85.005
X152.63Y-87.545
X153.06Y-74.73
X153.06Y-77.27
X153.08Y-62.73
X153.08Y-65.27
X153.58Y-51.85
X153.58Y-54.39
X158.77Y-110.32
X158.77Y-121.32
X163.99Y-41.86
X166.53Y-41.86
X169.07Y-41.86
X171.61Y-41.86
X172.88Y-27.51
X172.88Y-30.05
X172.88Y-32.59
X172.88Y-35.13
X173.47Y-75.38
X174.19Y-53.67
X174.71Y-58.67
X174.71Y-63.67
X174.837Y-114.22
X175.81Y-81.708
X175.81Y-86.708
X176.01Y-75.38
X176.73Y-53.67
X178.55Y-75.38
X179.27Y-53.67
X179.837Y-114.22
X186.36Y-27.52
X186.36Y-30.06
X186.36Y-32.6
X186.36Y-35.14
X196.22Y-27.55
X196.22Y-30.09
X196.22Y-32.63
X196.22Y-35.17
X211.62Y-110.66
X211.62Y-113.2
X211.62Y-115.74
X211.62Y-118.28
X211.62Y-120.82
X221.53Y-73.99
X224.07Y-73.99
X226.61Y-73.99
X229.15Y-73.99
X231.69Y-73.99
X232.74Y-69.69
X234.23Y-73.99
X235.28Y-69.69
X236.77Y-73.99
X237.82Y-69.69
X238.69Y-87.23
X239.31Y-73.99
X241.23Y-87.23
T5
X211.86Y-27.82
X211.86Y-32.32
X218.36Y-27.82
X218.36Y-32.32
X224.99Y-28.25
X224.99Y-32.75
X231.49Y-28.25
X231.49Y-32.75
T6
X217.48Y-115.59
X222.48Y-115.59
T7
X163.77Y-113.32
X163.77Y-118.32
M30
