%TF.GenerationSoftware,KiCad,Pcbnew,9.0.4*%
%TF.CreationDate,2026-06-21T22:44:12-05:00*%
%TF.ProjectId,Philo- main,5068696c-6f2d-4206-9d61-696e2e6b6963,rev?*%
%TF.SameCoordinates,Original*%
%TF.FileFunction,Soldermask,Top*%
%TF.FilePolarity,Negative*%
%FSLAX46Y46*%
G04 Gerber Fmt 4.6, Leading zero omitted, Abs format (unit mm)*
G04 Created by KiCad (PCBNEW 9.0.4) date 2026-06-21 22:44:12*
%MOMM*%
%LPD*%
G01*
G04 APERTURE LIST*
G04 Aperture macros list*
%AMRoundRect*
0 Rectangle with rounded corners*
0 $1 Rounding radius*
0 $2 $3 $4 $5 $6 $7 $8 $9 X,Y pos of 4 corners*
0 Add a 4 corners polygon primitive as box body*
4,1,4,$2,$3,$4,$5,$6,$7,$8,$9,$2,$3,0*
0 Add four circle primitives for the rounded corners*
1,1,$1+$1,$2,$3*
1,1,$1+$1,$4,$5*
1,1,$1+$1,$6,$7*
1,1,$1+$1,$8,$9*
0 Add four rect primitives between the rounded corners*
20,1,$1+$1,$2,$3,$4,$5,0*
20,1,$1+$1,$4,$5,$6,$7,0*
20,1,$1+$1,$6,$7,$8,$9,0*
20,1,$1+$1,$8,$9,$2,$3,0*%
G04 Aperture macros list end*
%ADD10R,1.700000X1.700000*%
%ADD11C,1.700000*%
%ADD12RoundRect,0.200000X-0.200000X-0.275000X0.200000X-0.275000X0.200000X0.275000X-0.200000X0.275000X0*%
%ADD13C,1.500000*%
%ADD14C,2.000000*%
%ADD15RoundRect,0.225000X-0.250000X0.225000X-0.250000X-0.225000X0.250000X-0.225000X0.250000X0.225000X0*%
%ADD16RoundRect,0.100000X-0.850000X-0.100000X0.850000X-0.100000X0.850000X0.100000X-0.850000X0.100000X0*%
%ADD17RoundRect,0.225000X0.225000X0.250000X-0.225000X0.250000X-0.225000X-0.250000X0.225000X-0.250000X0*%
%ADD18RoundRect,0.250000X-0.475000X0.250000X-0.475000X-0.250000X0.475000X-0.250000X0.475000X0.250000X0*%
%ADD19RoundRect,0.200000X0.275000X-0.200000X0.275000X0.200000X-0.275000X0.200000X-0.275000X-0.200000X0*%
%ADD20R,0.900000X1.500000*%
%ADD21R,1.500000X0.900000*%
%ADD22C,0.600000*%
%ADD23R,4.200000X4.200000*%
%ADD24RoundRect,0.250000X0.750000X-0.750000X0.750000X0.750000X-0.750000X0.750000X-0.750000X-0.750000X0*%
%ADD25RoundRect,0.200000X-0.275000X0.200000X-0.275000X-0.200000X0.275000X-0.200000X0.275000X0.200000X0*%
%ADD26RoundRect,0.225000X-0.225000X-0.250000X0.225000X-0.250000X0.225000X0.250000X-0.225000X0.250000X0*%
%ADD27RoundRect,0.250000X-0.250000X-0.475000X0.250000X-0.475000X0.250000X0.475000X-0.250000X0.475000X0*%
%ADD28RoundRect,0.250000X-0.550000X-0.550000X0.550000X-0.550000X0.550000X0.550000X-0.550000X0.550000X0*%
%ADD29C,1.600000*%
%ADD30RoundRect,0.250001X-0.949999X-0.949999X0.949999X-0.949999X0.949999X0.949999X-0.949999X0.949999X0*%
%ADD31C,2.400000*%
%ADD32RoundRect,0.250000X-0.850000X-0.350000X0.850000X-0.350000X0.850000X0.350000X-0.850000X0.350000X0*%
%ADD33RoundRect,0.249997X-2.950003X-2.650003X2.950003X-2.650003X2.950003X2.650003X-2.950003X2.650003X0*%
%ADD34C,1.400000*%
%ADD35RoundRect,0.770000X0.980000X-0.980000X0.980000X0.980000X-0.980000X0.980000X-0.980000X-0.980000X0*%
%ADD36C,3.500000*%
%ADD37RoundRect,0.243750X0.456250X-0.243750X0.456250X0.243750X-0.456250X0.243750X-0.456250X-0.243750X0*%
%ADD38RoundRect,0.250000X0.250000X0.475000X-0.250000X0.475000X-0.250000X-0.475000X0.250000X-0.475000X0*%
%ADD39RoundRect,0.375000X0.375000X-0.625000X0.375000X0.625000X-0.375000X0.625000X-0.375000X-0.625000X0*%
%ADD40RoundRect,0.500000X1.400000X-0.500000X1.400000X0.500000X-1.400000X0.500000X-1.400000X-0.500000X0*%
%ADD41RoundRect,0.250000X-0.750000X-0.750000X0.750000X-0.750000X0.750000X0.750000X-0.750000X0.750000X0*%
G04 APERTURE END LIST*
D10*
%TO.C,J10*%
X152630000Y-87545000D03*
D11*
X152630000Y-85005000D03*
%TD*%
D10*
%TO.C,J3*%
X172880000Y-27510000D03*
D11*
X172880000Y-30050000D03*
X172880000Y-32590000D03*
X172880000Y-35130000D03*
%TD*%
D10*
%TO.C,J9*%
X153060000Y-74730000D03*
D11*
X153060000Y-77270000D03*
%TD*%
D10*
%TO.C,J11*%
X153580000Y-51850000D03*
D11*
X153580000Y-54390000D03*
%TD*%
D10*
%TO.C,J5*%
X241230000Y-87230000D03*
D11*
X238690000Y-87230000D03*
%TD*%
D12*
%TO.C,R1*%
X200765000Y-32790000D03*
X202415000Y-32790000D03*
%TD*%
D13*
%TO.C,TP4*%
X231775000Y-117449600D03*
%TD*%
%TO.C,TP1*%
X216789000Y-67589400D03*
%TD*%
D14*
%TO.C,SW1*%
X224990000Y-28250000D03*
X231490000Y-28250000D03*
X224990000Y-32750000D03*
X231490000Y-32750000D03*
%TD*%
D10*
%TO.C,U1*%
X221530000Y-73990000D03*
D11*
X224070000Y-73990000D03*
X226610000Y-73990000D03*
X229150000Y-73990000D03*
X231690000Y-73990000D03*
X234230000Y-73990000D03*
X236770000Y-73990000D03*
X239310000Y-73990000D03*
%TD*%
D12*
%TO.C,R2*%
X202475000Y-34560000D03*
X204125000Y-34560000D03*
%TD*%
D15*
%TO.C,C20*%
X228330000Y-110145000D03*
X228330000Y-111695000D03*
%TD*%
D13*
%TO.C,TP6*%
X227510000Y-69670000D03*
%TD*%
D16*
%TO.C,U6*%
X159540000Y-77880000D03*
X159540000Y-78530000D03*
X159540000Y-79180000D03*
X159540000Y-79830000D03*
X159540000Y-80480000D03*
X159540000Y-81130000D03*
X159540000Y-81780000D03*
X159540000Y-82430000D03*
X159540000Y-83080000D03*
X159540000Y-83730000D03*
X159540000Y-84380000D03*
X159540000Y-85030000D03*
X166540000Y-85030000D03*
X166540000Y-84380000D03*
X166540000Y-83730000D03*
X166540000Y-83080000D03*
X166540000Y-82430000D03*
X166540000Y-81780000D03*
X166540000Y-81130000D03*
X166540000Y-80480000D03*
X166540000Y-79830000D03*
X166540000Y-79180000D03*
X166540000Y-78530000D03*
X166540000Y-77880000D03*
%TD*%
D17*
%TO.C,C18*%
X240525600Y-83743800D03*
X238975600Y-83743800D03*
%TD*%
D14*
%TO.C,SW2*%
X211860000Y-27820000D03*
X218360000Y-27820000D03*
X211860000Y-32320000D03*
X218360000Y-32320000D03*
%TD*%
D18*
%TO.C,C23*%
X195060000Y-117250000D03*
X195060000Y-119150000D03*
%TD*%
D10*
%TO.C,J6*%
X237820000Y-69690000D03*
D11*
X235280000Y-69690000D03*
X232740000Y-69690000D03*
%TD*%
D19*
%TO.C,R14*%
X163810000Y-38800000D03*
X163810000Y-37150000D03*
%TD*%
D13*
%TO.C,TP3*%
X232537000Y-113766600D03*
%TD*%
D19*
%TO.C,R6*%
X170360000Y-47395582D03*
X170360000Y-45745582D03*
%TD*%
D20*
%TO.C,U8*%
X240297500Y-44960000D03*
X239027500Y-44960000D03*
X237757500Y-44960000D03*
X236487500Y-44960000D03*
X235217500Y-44960000D03*
X233947500Y-44960000D03*
X232677500Y-44960000D03*
X231407500Y-44960000D03*
X230137500Y-44960000D03*
X228867500Y-44960000D03*
X227597500Y-44960000D03*
X226327500Y-44960000D03*
X225057500Y-44960000D03*
X223787500Y-44960000D03*
D21*
X222537500Y-48000000D03*
X222537500Y-49270000D03*
X222537500Y-50540000D03*
X222537500Y-51810000D03*
X222537500Y-53080000D03*
X222537500Y-54350000D03*
X222537500Y-55620000D03*
X222537500Y-56890000D03*
X222537500Y-58160000D03*
X222537500Y-59430000D03*
D20*
X223787500Y-62460000D03*
X225057500Y-62460000D03*
X226327500Y-62460000D03*
X227597500Y-62460000D03*
X228867500Y-62460000D03*
X230137500Y-62460000D03*
X231407500Y-62460000D03*
X232677500Y-62460000D03*
X233947500Y-62460000D03*
X235217500Y-62460000D03*
X236487500Y-62460000D03*
X237757500Y-62460000D03*
X239027500Y-62460000D03*
X240297500Y-62460000D03*
D22*
X233720000Y-51505000D03*
X232195000Y-51505000D03*
X234482500Y-52267500D03*
X232957500Y-52267500D03*
X231432500Y-52267500D03*
X233720000Y-53030000D03*
D23*
X232957500Y-53030000D03*
D22*
X232195000Y-53030000D03*
X234482500Y-53792500D03*
X232957500Y-53792500D03*
X231432500Y-53792500D03*
X233720000Y-54555000D03*
X232195000Y-54555000D03*
%TD*%
D12*
%TO.C,R7*%
X190645000Y-34500000D03*
X192295000Y-34500000D03*
%TD*%
D13*
%TO.C,TP2*%
X180230000Y-99690000D03*
%TD*%
D12*
%TO.C,R8*%
X175955000Y-32570000D03*
X177605000Y-32570000D03*
%TD*%
%TO.C,R9*%
X177575000Y-34390000D03*
X179225000Y-34390000D03*
%TD*%
D24*
%TO.C,C27*%
X174710000Y-63670000D03*
D14*
X174710000Y-58670000D03*
%TD*%
D12*
%TO.C,R12*%
X221990000Y-64960000D03*
X223640000Y-64960000D03*
%TD*%
D25*
%TO.C,R13*%
X166590000Y-37085000D03*
X166590000Y-38735000D03*
%TD*%
D12*
%TO.C,R3*%
X189075000Y-32600000D03*
X190725000Y-32600000D03*
%TD*%
%TO.C,R10*%
X223000000Y-38080000D03*
X224650000Y-38080000D03*
%TD*%
D10*
%TO.C,J1*%
X196220000Y-27550000D03*
D11*
X196220000Y-30090000D03*
X196220000Y-32630000D03*
X196220000Y-35170000D03*
%TD*%
D17*
%TO.C,C21*%
X240090000Y-112500000D03*
X238540000Y-112500000D03*
%TD*%
D26*
%TO.C,C31*%
X203263200Y-64973200D03*
X204813200Y-64973200D03*
%TD*%
D27*
%TO.C,C19*%
X239040000Y-99050000D03*
X240940000Y-99050000D03*
%TD*%
D10*
%TO.C,J4*%
X171610000Y-41860000D03*
D11*
X169070000Y-41860000D03*
X166530000Y-41860000D03*
X163990000Y-41860000D03*
%TD*%
D28*
%TO.C,C24*%
X186972621Y-116350000D03*
D29*
X189472621Y-116350000D03*
%TD*%
D10*
%TO.C,J8*%
X211620000Y-110660000D03*
D11*
X211620000Y-113200000D03*
X211620000Y-115740000D03*
X211620000Y-118280000D03*
X211620000Y-120820000D03*
%TD*%
D26*
%TO.C,C2*%
X177215000Y-50260000D03*
X178765000Y-50260000D03*
%TD*%
D13*
%TO.C,TP5*%
X236320000Y-65140000D03*
%TD*%
D30*
%TO.C,C22*%
X217480000Y-115590000D03*
D31*
X222480000Y-115590000D03*
%TD*%
D16*
%TO.C,U7*%
X159770000Y-55395000D03*
X159770000Y-56045000D03*
X159770000Y-56695000D03*
X159770000Y-57345000D03*
X159770000Y-57995000D03*
X159770000Y-58645000D03*
X159770000Y-59295000D03*
X159770000Y-59945000D03*
X159770000Y-60595000D03*
X159770000Y-61245000D03*
X159770000Y-61895000D03*
X159770000Y-62545000D03*
X166770000Y-62545000D03*
X166770000Y-61895000D03*
X166770000Y-61245000D03*
X166770000Y-60595000D03*
X166770000Y-59945000D03*
X166770000Y-59295000D03*
X166770000Y-58645000D03*
X166770000Y-57995000D03*
X166770000Y-57345000D03*
X166770000Y-56695000D03*
X166770000Y-56045000D03*
X166770000Y-55395000D03*
%TD*%
D19*
%TO.C,R11*%
X220270000Y-59630000D03*
X220270000Y-57980000D03*
%TD*%
D17*
%TO.C,C26*%
X203470000Y-68970000D03*
X201920000Y-68970000D03*
%TD*%
D10*
%TO.C,J14*%
X173470000Y-75380000D03*
D11*
X176010000Y-75380000D03*
X178550000Y-75380000D03*
%TD*%
D24*
%TO.C,C29*%
X175810000Y-86707677D03*
D14*
X175810000Y-81707677D03*
%TD*%
D10*
%TO.C,J2*%
X186360000Y-27520000D03*
D11*
X186360000Y-30060000D03*
X186360000Y-32600000D03*
X186360000Y-35140000D03*
%TD*%
D27*
%TO.C,C32*%
X238840000Y-41360000D03*
X240740000Y-41360000D03*
%TD*%
D32*
%TO.C,Q2*%
X198110000Y-111965000D03*
X198110000Y-114245000D03*
D33*
X204410000Y-114245000D03*
D32*
X198110000Y-116525000D03*
%TD*%
D17*
%TO.C,C28*%
X240765000Y-96580000D03*
X239215000Y-96580000D03*
%TD*%
D15*
%TO.C,C25*%
X165590000Y-46215582D03*
X165590000Y-47765582D03*
%TD*%
D34*
%TO.C,J7*%
X158770000Y-121320000D03*
X158770000Y-110320000D03*
D35*
X163770000Y-118320000D03*
D36*
X163770000Y-113320000D03*
%TD*%
D10*
%TO.C,J13*%
X174190000Y-53670000D03*
D11*
X176730000Y-53670000D03*
X179270000Y-53670000D03*
%TD*%
D37*
%TO.C,D1*%
X217030000Y-59810000D03*
X217030000Y-57935000D03*
%TD*%
D26*
%TO.C,C30*%
X224715000Y-36200000D03*
X226265000Y-36200000D03*
%TD*%
D19*
%TO.C,R5*%
X168360000Y-47535582D03*
X168360000Y-45885582D03*
%TD*%
D26*
%TO.C,C3*%
X176495000Y-72380000D03*
X178045000Y-72380000D03*
%TD*%
D38*
%TO.C,C17*%
X240200000Y-115870000D03*
X238300000Y-115870000D03*
%TD*%
D19*
%TO.C,R4*%
X194720000Y-112230000D03*
X194720000Y-110580000D03*
%TD*%
D10*
%TO.C,J12*%
X153080000Y-65270000D03*
D11*
X153080000Y-62730000D03*
%TD*%
D39*
%TO.C,U5*%
X237500000Y-109320000D03*
X239800000Y-109320000D03*
D40*
X239800000Y-103020000D03*
D39*
X242100000Y-109320000D03*
%TD*%
D41*
%TO.C,F2*%
X174837323Y-114220000D03*
D14*
X179837323Y-114220000D03*
%TD*%
M02*
